<svg xmlns="http://www.w3.org/2000/svg" viewBox="0 0 160 160"><rect x="-4.5" y="-1.5" width="179" height="171" style="fill:#141410"/><path d="M174-1V169H-4V-1H174m1-1H-5V170H175V-2Z"/><path d="M9.46,138.39V22.19H36.34q42.29,0,42.28,58.1,0,29.49-9.54,43.79T39.59,138.39Zm29.7-4.77q18.21,0,18.21-53.33T36.56,27H29.3V133.62Z" style="fill:#d4af37"/><path d="M149.94,83.22q6.84,8.34,6.83,21.68,0,18.1-6.83,25.8t-23,7.69H89.78V22.19h29.49q16,0,23,7t6.83,23.52a21.32,21.32,0,0,1-4.56,13.66A23.46,23.46,0,0,1,132,74.22,23.77,23.77,0,0,1,149.94,83.22ZM119.38,73c2.74,0,5-1.74,6.72-5.2s2.49-7.92,2.49-13.55q0-14.85-2.06-21T119.59,27h-10V73Zm5.85,60.59q5.52,0,7.91-7.15t2.39-23.85q0-11.16-2.61-18.1t-6.72-6.83l-16.58-.11v56Z" style="fill:#d4af37"/><path d="M4.75,134.77V18.57H31.64c32.7.17,42.08,30.34,42.27,58.1.1,14.48-1.6,31.42-9.54,43.79-6.28,9.8-17.88,14.54-29.48,14.31ZM34.46,130c19.85-1.54,18.2-40.55,18.21-53.33,0-14.23.77-52.24-20.82-53.33H24.59V130Z" style="fill:#ececec"/><path d="M145.24,79.6c4.51,5.56,6.83,12.79,6.83,21.68,0,12.07-2.28,20.7-6.83,25.8s-12.29,7.69-23,7.69H85.08V18.57h29.48c10.7,0,18.39,2.35,23,7s6.83,12.54,6.83,23.53a21.21,21.21,0,0,1-4.55,13.65,23.4,23.4,0,0,1-12.57,7.81A23.92,23.92,0,0,1,145.24,79.6ZM114.67,69.41c2.75,0,5-1.74,6.72-5.21s2.49-7.91,2.49-13.55c0-9.9-.7-16.91-2-21s-3.69-6.29-6.94-6.29h-10V69.41ZM120.52,130q5.53,0,7.92-7.15T130.82,99c0-7.44-.86-13.49-2.6-18.1s-4-6.83-6.72-6.83L104.92,74v56Z" style="fill:#ececec"/></svg>