<svg xmlns="http://www.w3.org/2000/svg" viewBox="0 0 180 172"><rect x="0.5" y="0.5" width="179" height="171" style="fill:#dadada"/><path d="M166-7V163H-12V-7H166m1-1H-13V164H167V-8Z" transform="translate(13 8)"/><path d="M6.2,137.35V21.14H33.08c32.7.17,42.08,30.34,42.28,58.1.1,14.48-1.61,31.43-9.54,43.8-6.29,9.79-17.89,14.54-29.49,14.31Zm29.7-4.77C55.75,131,54.1,92,54.11,79.24,54.12,65,54.88,27,33.3,25.91H26V132.58Z" transform="translate(13 8)" style="fill:#141410"/><path d="M146.68,82.17c4.52,5.56,6.83,12.79,6.83,21.68,0,12.07-2.27,20.71-6.83,25.8s-12.28,7.7-23,7.7H86.52V21.14H116c10.7,0,18.4,2.35,23,7.05s6.82,12.54,6.82,23.52a21.23,21.23,0,0,1-4.55,13.66,23.39,23.39,0,0,1-12.57,7.8A24,24,0,0,1,146.68,82.17ZM116.11,72c2.75,0,5-1.74,6.72-5.2s2.5-7.91,2.5-13.55c0-9.9-.7-16.92-2.06-21s-3.69-6.29-6.94-6.29h-10V72Zm5.86,60.6q5.52,0,7.91-7.16t2.38-23.85c0-7.44-.86-13.49-2.6-18.1s-4-6.83-6.72-6.83l-16.58-.11v56.05Z" transform="translate(13 8)" style="fill:#141410"/></svg>