<svg xmlns="http://www.w3.org/2000/svg" width="100%" height="100%" viewBox="0 0 944 242"><path d="M35.52,233V23.6H84c54.52.23,76.83,44.35,75.76,93.68-.54,25-3.12,51.49-17.44,72.91-12.05,18-31.82,28.59-52.93,32.33Q62.38,227.49,35.52,233Zm53.07-18.48c34.82-6.33,32.88-70.36,32.93-94.2,0-23.31,1.13-89-37.19-88.49l-13.08.1L71,217.64C78,216.35,81.53,215.72,88.59,214.49Z" style="fill:#d4af37"/><path d="M297.82,194.8q-54.67,4.81-109,12,.43-91.59.88-183.19h106c0,2.94,0,4.41,0,7.36q-35.16.13-70.32.31-.19,37.58-.38,75.16,25-1.37,50-2.48c0,2.84,0,4.27,0,7.11q-25,1.2-50,2.71-.21,40.41-.41,80.83,36.63-4.07,73.33-7.14C297.84,190.4,297.83,191.87,297.82,194.8Z" style="fill:#d4af37"/><path d="M362.61,107.71q-.14,41.28-.29,82.56-18,1-35.88,2.29.38-84.48.73-169H433.23c0,2.81,0,4.22,0,7q-35.18,0-70.33.12-.12,35.05-.25,70.12,25-.65,50.1-1c0,2.7,0,4,0,6.75Q387.67,107,362.61,107.71Z" style="fill:#d4af37"/><path d="M496.59,186.85q-17.86-.09-35.73.11.06-81.68.13-163.36h35.54q.39,0,0,.3c.26.31.26.46,0,.46l.06,161.72Z" style="fill:#d4af37"/><path d="M640.88,112.17c8.36,8.53,12.29,20.48,12.47,32.11.19,12.55-2.4,28.71-12.18,36.8-10.74,8.89-27.41,9.35-41.51,8.65q-33.66-1.64-67.31-2.43l-.24-163.7h53.12c14.23,0,30.39,1.35,41.45,10.17,9.65,7.7,12.53,22,12.45,34.17A26.76,26.76,0,0,1,631,87.53c-5.4,5.3-13,8.84-22.65,10.67C620.46,98.92,632.33,103.45,640.88,112.17ZM585.64,96c5,.1,9-2.29,12.11-7.18s4.43-11.27,4.44-19.3c0-9.89-.15-20.89-3.82-30.11-2.37-5.94-6.67-9-12.53-9l-18,0q.07,32.66.16,65.31C575.08,95.79,578.6,95.85,585.64,96Zm10.85,86.77c6.67.32,11.61-2.91,14.28-9.54,4.19-10.36,4.28-22.86,4.19-34-.09-10.65-1.63-19.46-4.8-26.16S603,103,598,102.91q-15-.45-29.94-.78.09,39.72.2,79.45Q582.37,182.08,596.49,182.76Z" style="fill:#d4af37"/><path d="M670.63,194.51q25.59-85.29,50-170.91h38.87q26.79,93.33,51.79,187.17-19.17-2.85-38.4-5.35-7.67-28.42-15.5-56.8-29.86-2.56-59.79-4.55-7.56,25.74-15.2,51.45C677.68,195.1,675.33,194.9,670.63,194.51Zm84.75-53.6q-14-50.23-28.44-100.36-13.53,48.24-27.44,96.36Q727.45,138.74,755.38,140.91Z" style="fill:#d4af37"/><path d="M867.24,134.53q.13,42.65.25,85.3-17.76-3.11-35.56-5.91L831.18,23.6h38.67C909,23.33,931.52,47.68,932,86c.34,28.94-17.82,47.1-46.45,48.11l-6.61.08q29.94,48.72,57.53,98.76c-5.1-1.05-7.65-1.57-12.76-2.6Q896.54,181.8,867.24,134.53Zm3.29-8.86c22.71,2.64,25.77-25.64,25.8-41.73,0-17.56-2.18-52.13-26.85-52.27l-2.53,0,.27,93.72Z" style="fill:#d4af37"/><path d="M27.92,227.75V18.38H76.35c54.52.23,76.83,44.34,75.77,93.68-.54,25-3.13,51.49-17.45,72.91-12,18-31.82,28.59-52.93,32.33Q54.77,222.27,27.92,227.75ZM81,209.27c34.82-6.33,32.89-70.36,32.93-94.2,0-23.32,1.13-89-37.18-88.49l-13.09.1-.3,185.73C70.39,211.13,73.92,210.5,81,209.27Z" style="fill:#ececec"/><path d="M290.21,189.58q-54.67,4.8-109,12,.43-91.59.88-183.19H288.1c0,2.94,0,4.41,0,7.35q-35.16.14-70.32.31-.18,37.59-.38,75.17,25-1.36,50-2.48c0,2.84,0,4.26,0,7.11q-25,1.2-50,2.7-.19,40.42-.41,80.84,36.63-4.06,73.34-7.15C290.23,185.17,290.23,186.64,290.21,189.58Z" style="fill:#ececec"/><path d="M355,102.49l-.3,82.55q-17.94,1-35.87,2.29.36-84.48.73-169H425.62c0,2.81,0,4.21,0,7q-35.16,0-70.33.12-.12,35.05-.25,70.12,25.05-.65,50.11-1c0,2.7,0,4,0,6.75Q380.06,101.76,355,102.49Z" style="fill:#ececec"/><path d="M489,181.62s-23.82,0-35.73.12q.06-81.69.13-163.36h35.55q.39,0,0,.3c.26.31.26.46,0,.46q0,80.86.05,161.72Z" style="fill:#ececec"/><path d="M633.27,107c8.36,8.53,12.29,20.47,12.47,32.1.2,12.56-2.4,28.72-12.17,36.81-10.75,8.89-27.42,9.35-41.52,8.65q-33.64-1.63-67.31-2.43l-.24-163.7h53.13c14.22,0,30.39,1.35,41.44,10.17,9.66,7.69,12.53,22,12.45,34.16a26.72,26.72,0,0,1-8.13,19.6c-5.4,5.3-13,8.84-22.65,10.67C612.85,93.69,624.72,98.23,633.27,107ZM578,90.77c5,.1,9-2.3,12.11-7.18s4.42-11.27,4.43-19.3c0-9.9-.15-20.89-3.82-30.11-2.36-5.95-6.67-9-12.53-9l-18,0q.07,32.65.16,65.31C567.47,90.57,571,90.63,578,90.77Zm10.85,86.77c6.67.31,11.6-2.92,14.28-9.54,4.18-10.37,4.27-22.87,4.18-34.05-.09-10.64-1.63-19.45-4.79-26.15s-7.22-10-12.17-10.11q-15-.45-29.95-.78.1,39.72.2,79.45Q574.77,176.86,588.89,177.54Z" style="fill:#ececec"/><path d="M663,189.28Q688.63,104,713,18.38h38.87q26.8,93.33,51.79,187.16-19.17-2.83-38.4-5.34-7.66-28.42-15.5-56.8-29.87-2.57-59.79-4.55-7.56,25.72-15.2,51.45C670.07,189.88,667.72,189.68,663,189.28Zm84.75-53.59q-14-50.25-28.43-100.36-13.55,48.23-27.45,96.36Q719.85,133.51,747.77,135.69Z" style="fill:#ececec"/><path d="M859.64,129.3q.12,42.66.25,85.3-17.76-3.09-35.57-5.9l-.75-190.32h38.68c39.09-.27,61.66,24.08,62.12,62.42.34,28.93-17.81,47.09-46.45,48.11l-6.61.08q29.94,48.72,57.54,98.76c-5.11-1.06-7.66-1.58-12.76-2.6Q888.93,176.58,859.64,129.3Zm3.28-8.85c22.71,2.64,25.77-25.64,25.8-41.74,0-17.56-2.17-52.13-26.84-52.26l-2.54,0,.27,93.72Z" style="fill:#ececec"/></svg>