<?xml version="1.0" standalone="no"?>
<!DOCTYPE svg PUBLIC "-//W3C//DTD SVG 20010904//EN"
 "http://www.w3.org/TR/2001/REC-SVG-20010904/DTD/svg10.dtd">
<svg version="1.0" xmlns="http://www.w3.org/2000/svg"
 width="700.000000pt" height="700.000000pt" viewBox="0 0 700.000000 700.000000"
 preserveAspectRatio="xMidYMid meet">
<metadata>
Created by potrace 1.14, written by Peter Selinger 2001-2017
</metadata>
<g transform="translate(0.000000,700.000000) scale(0.100000,-0.100000)"
fill="#000000" stroke="none">
<path d="M270 3530 l0 -2541 778 4 c828 4 826 4 1018 56 341 93 624 287 797
548 169 253 302 617 366 1003 95 570 88 1287 -20 1814 -178 872 -608 1417
-1261 1596 -195 53 -183 53 -955 57 l-723 4 0 -2541z m1335 2315 c312 -86 526
-374 649 -875 54 -221 90 -513 106 -865 13 -282 13 -1042 0 -1295 -28 -542
-98 -896 -234 -1175 -61 -125 -130 -220 -208 -289 -61 -54 -189 -119 -266
-135 -29 -6 -156 -11 -282 -11 l-230 0 0 2336 0 2337 203 -6 c143 -4 219 -10
262 -22z"/>
<path d="M3790 3529 l0 -2540 933 4 c806 4 945 6 1027 21 200 34 348 83 475
158 85 50 236 199 283 280 120 203 185 478 201 835 17 392 -28 653 -154 901
-61 119 -116 197 -204 288 -152 158 -363 272 -566 304 -38 6 -85 13 -104 16
-33 5 -32 6 38 30 259 87 462 264 570 496 73 155 86 224 85 458 -3 736 -234
1105 -774 1238 -196 48 -271 52 -1066 52 l-744 0 0 -2541z m1415 2307 c98 -45
164 -150 210 -329 40 -159 56 -335 62 -677 5 -263 3 -334 -11 -429 -39 -264
-135 -452 -268 -523 -41 -22 -54 -23 -295 -26 l-253 -3 0 1005 0 1006 253 0
c243 0 254 -1 302 -24z m278 -2219 c206 -121 322 -599 303 -1242 -20 -645 -88
-953 -240 -1092 -89 -81 -99 -83 -527 -83 l-369 0 0 1225 0 1226 393 -3 392
-3 48 -28z"/>
</g>
</svg>
